HIERARCHY
ROOT Hips
{
  OFFSET 54.587 85.7672 14.7694
  CHANNELS 6 Xposition Yposition Zposition Zrotation Xrotation Yrotation
  JOINT spine
  {
    OFFSET 0 6.3926 0.367606
    CHANNELS 3 Zrotation Xrotation Yrotation
    JOINT spine1
    {
      OFFSET 0 9.17611 0
      CHANNELS 3 Zrotation Xrotation Yrotation
      JOINT spine2
      {
        OFFSET 0 8.79238 0
        CHANNELS 3 Zrotation Xrotation Yrotation
        JOINT Neck
        {
          OFFSET 0 22.5737 1.07624
          CHANNELS 3 Zrotation Xrotation Yrotation
          JOINT Head
          {
            OFFSET 0 6.82011 0
            CHANNELS 3 Zrotation Xrotation Yrotation
            End Site
            {
              OFFSET 0 16.5085 -5.44427
            }
          }
        }
        JOINT RightShoulder
        {
          OFFSET -3.70221 9.49509 -0.515508
          CHANNELS 3 Zrotation Xrotation Yrotation
          JOINT RightArm
          {
            OFFSET 0 12.4537 0
            CHANNELS 3 Zrotation Xrotation Yrotation
            JOINT RightArmRoll
            {
              OFFSET 0 6.28686 0
              CHANNELS 3 Zrotation Xrotation Yrotation
              JOINT RightForeArm
              {
                OFFSET 0 18.3114 0
                CHANNELS 3 Zrotation Xrotation Yrotation
                JOINT RightForeArmRoll
                {
                  OFFSET 0 7.05482 0
                  CHANNELS 3 Zrotation Xrotation Yrotation
                  JOINT RightHand
                  {
                    OFFSET 0 14.1575 0
                    CHANNELS 3 Zrotation Xrotation Yrotation
                    End Site
                    {
                      OFFSET 0 0 0
                    }
                  }
                }
              }
            }
          }
        }
        JOINT LeftShoulder
        {
          OFFSET 3.70221 9.49509 -0.515508
          CHANNELS 3 Zrotation Xrotation Yrotation
          JOINT LeftArm
          {
            OFFSET 0 12.4537 0
            CHANNELS 3 Zrotation Xrotation Yrotation
            JOINT LeftArmRoll
            {
              OFFSET 0 6.28686 0
              CHANNELS 3 Zrotation Xrotation Yrotation
              JOINT LeftForeArm
              {
                OFFSET 0 18.3114 0
                CHANNELS 3 Zrotation Xrotation Yrotation
                JOINT LeftForeArmRoll
                {
                  OFFSET 0 7.05482 0
                  CHANNELS 3 Zrotation Xrotation Yrotation
                  JOINT LeftHand
                  {
                    OFFSET 0 14.1575 0
                    CHANNELS 3 Zrotation Xrotation Yrotation
                    End Site
                    {
                      OFFSET 0 0 0
                    }
                  }
                }
              }
            }
          }
        }
      }
    }
  }
  JOINT RightUpLeg
  {
    OFFSET -5.66616 -1.03903 -0.87161
    CHANNELS 3 Zrotation Xrotation Yrotation
    JOINT RightUpLegRoll
    {
      OFFSET 0 16.6005 0
      CHANNELS 3 Zrotation Xrotation Yrotation
      JOINT RightLeg
      {
        OFFSET 0 -20.5572 0
        CHANNELS 3 Zrotation Xrotation Yrotation
        JOINT RightLegRoll
        {
          OFFSET 0 20.6244 0
          CHANNELS 3 Zrotation Xrotation Yrotation
          JOINT RightFoot
          {
            OFFSET 0 17.1664 0
            CHANNELS 3 Zrotation Xrotation Yrotation
            JOINT RightToeBase
            {
              OFFSET 0 14.3502 0
              CHANNELS 3 Zrotation Xrotation Yrotation
              End Site
              {
                OFFSET 0.00608252 6.94971 -0.801061
              }
            }
          }
        }
      }
    }
  }
  JOINT LeftUpLeg
  {
    OFFSET 5.66616 -1.03903 -0.87161
    CHANNELS 3 Zrotation Xrotation Yrotation
    JOINT LeftUpLegRoll
    {
      OFFSET 0 16.6006 0
      CHANNELS 3 Zrotation Xrotation Yrotation
      JOINT LeftLeg
      {
        OFFSET 0 20.5571 0
        CHANNELS 3 Zrotation Xrotation Yrotation
        JOINT LeftLegRoll
        {
          OFFSET 0 20.8151 0
          CHANNELS 3 Zrotation Xrotation Yrotation
          JOINT LeftFoot
          {
            OFFSET 0 16.9757 0
            CHANNELS 3 Zrotation Xrotation Yrotation
            JOINT LeftToeBase
            {
              OFFSET 0 14.3502 0
              CHANNELS 3 Zrotation Xrotation Yrotation
              End Site
              {
                OFFSET -0.0272592 6.94971 -0.801061
              }
            }
          }
        }
      }
    }
  }
}
MOTION
Frames: 9
Frame Time: 0.00208333
54.7325 85.7596 15.2135 -1.75847 -3.20751 -6.16243 -0.215657 -1.20172 -0.100796 -0.438535 1.59385 -0.182363 -0.4367 3.23888 -0.175124 7.52369 13.4743 1.84286 -5.24233 8.61857 4.26629 28.4155 -16.1108 -12.826 65.2401 41.5158 52.9862 -1.08619e-007 -1.86408e-006 -3.09753e-006 171.165 65.344 -163.271 3.63605e-006 2.33364e-006 -3.00233 8.02886 -4.95144 0.697686 -55.7888 1.3181 -1.2725 -111.039 13.8739 -1.91651 -2.20337e-006 4.0046e-007 1.42891e-005 -9.7574 3.7628 0.869725 -6.55687e-007 -4.2193e-006 3 -8.02899 -4.95146 -0.697676 175.235 -1.40115 1.06304 180 7.01535e-015 178.874 176.816 5.28409 179.766 -1.27153e-006 3.61729e-006 0.0489909 -18.5009 67.7322 19.3158 8.13649 25.2327 -3.48773 -173.719 -2.83367 -0.487393 4.54188e-006 -4.6773e-006 -1.13901 -1.21743 -6.77288 0.420994 2.44502e-006 -3.05723e-006 -0.0974179 19.4136 69.468 -20.8164 -8.13656 25.2337 3.4863 
54.7379 85.7563 15.2107 -1.75907 -3.21789 -6.16889 -0.216598 -1.19869 -0.0995433 -0.44119 1.60095 -0.180419 -0.439381 3.24599 -0.173135 7.48573 13.4534 1.85218 -5.18099 8.62105 4.26292 28.4734 -16.1055 -12.8136 65.2781 41.5314 53.1251 -1.08619e-007 -1.86408e-006 -3.09753e-006 171.003 65.6661 -163.098 3.63605e-006 2.33364e-006 -3.00233 8.02886 -4.95144 0.697686 -55.8 1.32703 -1.27669 -111.035 13.8855 -1.91156 -2.20337e-006 4.0046e-007 1.42891e-005 -9.75918 3.76544 0.870093 -6.55687e-007 -4.2193e-006 3 -8.02899 -4.95146 -0.697676 175.23 -1.40727 1.06962 180 7.01535e-015 178.874 176.809 5.28433 179.767 -1.27153e-006 3.61729e-006 0.0489909 -18.5008 67.7322 19.3162 8.13649 25.2327 -3.48773 -173.723 -2.84197 -0.483964 4.54188e-006 -4.6773e-006 -1.13888 -1.21365 -6.77632 0.421167 2.44502e-006 -3.05723e-006 -0.0975101 19.414 69.4695 -20.8177 -8.13656 25.2337 3.4863 
54.7442 85.7602 15.2219 -1.76017 -3.22788 -6.1756 -0.21752 -1.19576 -0.0983665 -0.443741 1.60785 -0.178588 -0.441957 3.25288 -0.17126 7.45035 13.432 1.86111 -5.12447 8.62319 4.25987 28.5322 -16.0994 -12.8004 65.3155 41.5467 53.2659 -1.08619e-007 -1.86408e-006 -3.09753e-006 170.835 65.9951 -162.92 3.63605e-006 2.33364e-006 -3.00233 8.02886 -4.95144 0.697686 -55.8104 1.33483 -1.28026 -111.031 13.8969 -1.90641 -2.20337e-006 4.0046e-007 1.42891e-005 -9.76097 3.76843 0.870506 -6.55687e-007 -4.2193e-006 3 -8.02899 -4.95146 -0.697676 175.226 -1.41308 1.07571 180 7.01535e-015 178.874 176.802 5.28452 179.769 -1.27153e-006 3.61729e-006 0.0489909 -18.5007 67.7322 19.3166 8.13649 25.2327 -3.48773 -173.726 -2.84983 -0.481096 4.54188e-006 -4.6773e-006 -1.13876 -1.21009 -6.77996 0.421326 2.44502e-006 -3.05723e-006 -0.0976018 19.4143 69.471 -20.819 -8.13656 25.2337 3.4863 
54.7095 85.7629 15.219 -1.76196 -3.23734 -6.18264 -0.218426 -1.19295 -0.097307 -0.446173 1.61445 -0.176928 -0.444412 3.25948 -0.169559 7.41853 13.4102 1.86953 -5.07422 8.62494 4.25734 28.5923 -16.0921 -12.7858 65.352 41.5615 53.4081 -1.08619e-007 -1.86408e-006 -3.09753e-006 170.661 66.3307 -162.738 3.63605e-006 2.33364e-006 -3.00233 8.02886 -4.95144 0.697686 -55.8196 1.34117 -1.28303 -111.028 13.908 -1.90089 -2.20337e-006 4.0046e-007 1.42891e-005 -9.76283 3.77189 0.870972 -6.55687e-007 -4.2193e-006 3 -8.02899 -4.95146 -0.697676 175.223 -1.41849 1.081 180 7.01535e-015 178.874 176.796 5.28466 179.77 -1.27153e-006 3.61729e-006 0.0489909 -18.5006 67.7322 19.317 8.13649 25.2327 -3.48773 -173.728 -2.85707 -0.479024 4.54188e-006 -4.6773e-006 -1.13863 -1.20685 -6.78401 0.421476 2.44502e-006 -3.05723e-006 -0.0976928 19.4143 69.4727 -20.8205 -8.13656 25.2337 3.4863 
54.7181 85.7536 15.2052 -1.76464 -3.24616 -6.1901 -0.21932 -1.19028 -0.096406 -0.44847 1.62067 -0.175501 -0.446728 3.26571 -0.168093 7.39123 13.3879 1.87735 -5.03167 8.62624 4.25554 28.6538 -16.0832 -12.7693 65.3873 41.5755 53.551 -1.08619e-007 -1.86408e-006 -3.09753e-006 170.481 66.6725 -162.553 3.63605e-006 2.33364e-006 -3.00232 8.02886 -4.95144 0.697686 -55.8273 1.34569 -1.28486 -111.026 13.9186 -1.89483 -2.20337e-006 4.0046e-007 1.42891e-005 -9.76485 3.77592 0.871499 -6.55687e-007 -4.2193e-006 3 -8.02899 -4.95146 -0.697676 175.221 -1.42341 1.0852 180 7.01535e-015 178.874 176.791 5.28476 179.771 -1.27153e-006 3.61729e-006 0.0489909 -18.5006 67.7323 19.3174 8.13649 25.2327 -3.48773 -173.729 -2.8635 -0.477979 4.54188e-006 -4.6773e-006 -1.13851 -1.204 -6.78867 0.421623 2.44502e-006 -3.05723e-006 -0.0977829 19.4142 69.4746 -20.8221 -8.13656 25.2337 3.4863 
54.6649 85.7543 15.2125 -1.7684 -3.25421 -6.19806 -0.220205 -1.18779 -0.095705 -0.450615 1.62644 -0.174365 -0.448889 3.27147 -0.166921 7.36942 13.3654 1.88447 -4.99827 8.62705 4.25465 28.7171 -16.0724 -12.7504 65.4209 41.5885 53.6942 -1.08619e-007 -1.86408e-006 -3.09753e-006 170.297 67.0201 -162.366 3.63605e-006 2.33364e-006 -3.00232 8.02886 -4.95144 0.697686 -55.8329 1.34806 -1.28558 -111.025 13.9284 -1.88809 -2.20337e-006 4.0046e-007 1.42891e-005 -9.7671 3.78064 0.872096 -6.55687e-007 -4.2193e-006 3 -8.02899 -4.95146 -0.697676 175.221 -1.42775 1.08798 180 7.01535e-015 178.874 176.786 5.28482 179.772 -1.27153e-006 3.61729e-006 0.0489909 -18.5005 67.7323 19.3177 8.13649 25.2327 -3.48773 -173.728 -2.86891 -0.478197 4.54188e-006 -4.6773e-006 -1.13839 -1.20164 -6.79416 0.421774 2.44502e-006 -3.05723e-006 -0.097872 19.4139 69.4768 -20.8241 -8.13656 25.2337 3.4863 
54.6701 85.7524 15.2009 -1.77345 -3.26137 -6.20661 -0.221085 -1.1855 -0.0952454 -0.452593 1.63165 -0.173581 -0.450878 3.27669 -0.166103 7.35407 13.3427 1.89079 -4.97547 8.62729 4.25489 28.7825 -16.0591 -12.7286 65.4526 41.6001 53.837 -1.08619e-007 -1.86408e-006 -3.09753e-006 170.108 67.3732 -162.177 3.63605e-006 2.33364e-006 -3.00232 8.02886 -4.95144 0.697686 -55.836 1.34794 -1.28503 -111.025 13.9372 -1.88051 -2.20337e-006 4.0046e-007 1.42891e-005 -9.76965 3.78615 0.872772 -6.55687e-007 -4.2193e-006 3 -8.02899 -4.95146 -0.697676 175.223 -1.43141 1.08906 180 7.01535e-015 178.874 176.782 5.28492 179.772 -1.27153e-006 3.61729e-006 0.0489909 -18.5005 67.7324 19.318 8.13649 25.2327 -3.48773 -173.724 -2.87313 -0.47991 4.54188e-006 -4.6773e-006 -1.13827 -1.19983 -6.80068 0.421936 2.44502e-006 -3.05723e-006 -0.0979601 19.4134 69.4794 -20.8263 -8.13656 25.2337 3.4863 
54.6757 85.7503 15.1992 -1.77998 -3.26751 -6.21583 -0.221964 -1.18344 -0.0950684 -0.454387 1.63624 -0.173208 -0.452679 3.28128 -0.165701 7.34614 13.3198 1.8962 -4.96472 8.62693 4.25645 28.8502 -16.043 -12.7035 65.4821 41.6102 53.9789 -1.08619e-007 -1.86408e-006 -3.09753e-006 169.915 67.7316 -161.987 3.63605e-006 2.33364e-006 -3.00232 8.02886 -4.95144 0.697686 -55.8363 1.34498 -1.28305 -111.027 13.9449 -1.87191 -2.20337e-006 4.0046e-007 1.42891e-005 -9.77257 3.79258 0.873535 -6.55687e-007 -4.2193e-006 3 -8.02899 -4.95146 -0.697676 175.228 -1.43431 1.08812 180 7.01535e-015 178.874 176.78 5.28496 179.773 -1.27153e-006 3.61729e-006 0.0489909 -18.5005 67.7325 19.3181 8.13649 25.2327 -3.48773 -173.718 -2.87595 -0.483353 4.54188e-006 -4.6773e-006 -1.13816 -1.19868 -6.80845 0.422113 2.44502e-006 -3.05723e-006 -0.0980468 19.4126 69.4825 -20.8291 -8.13656 25.2337 3.4863 
54.658 85.752 15.2076 -1.78841 -3.27269 -6.22603 -0.222755 -1.18159 -0.0951936 -0.455805 1.64029 -0.173297 -0.454098 3.28532 -0.165766 7.3458 13.2962 1.90085 -4.96684 8.62597 4.25947 28.9202 -16.0236 -12.6747 65.5099 41.6185 54.12 -1.08619e-007 -1.86408e-006 -3.09753e-006 169.717 68.0943 -161.794 3.63605e-006 2.33364e-006 -3.00232 8.02886 -4.95144 0.697686 -55.8339 1.33829 -1.27903 -111.031 13.9519 -1.86207 -2.20337e-006 4.0046e-007 1.42891e-005 -9.77588 3.79975 0.874381 -6.55687e-007 -4.2193e-006 3 -8.02899 -4.95146 -0.697676 175.236 -1.43649 1.08509 180 7.01535e-015 178.874 176.779 5.28501 179.773 -1.27153e-006 3.61729e-006 0.0489909 -18.5005 67.7325 19.3182 8.13649 25.2327 -3.48773 -173.709 -2.87742 -0.488922 4.54188e-006 -4.6773e-006 -1.13805 -1.1983 -6.81764 0.422271 2.44502e-006 -3.05723e-006 -0.0981328 19.4115 69.4861 -20.8323 -8.13656 25.2337 3.4863 
